<svg version="1" xmlns="http://www.w3.org/2000/svg" width="682.667" height="682.667" viewBox="0 0 512.000000 512.000000"><path d="M250 36.1C247 37.3 3.5 280.3 1.4 284.2c-2 3.7-1.8 10.7.5 14.8 2 3.9 8.9 8 13.2 8 1.5 0 4-.5 5.6-1 1.6-.6 53.1-51.4 119.1-117.3L256 72.5l116.3 116.2c65.9 65.9 117.4 116.7 119 117.3 1.6.5 4.1 1 5.6 1 4.3 0 11.2-4.1 13.2-8 2.3-4.1 2.5-11.1.5-14.8-2.3-4.2-245.7-247-248.9-248.2-3.5-1.2-8.3-1.2-11.7.1z"/><path d="M79.5 276.9c-3.3 1.4-7.4 6.2-8.5 10-.8 2.4-1 32.4-.8 91.8.3 87.6.3 88.2 2.4 91 1.1 1.5 3.6 3.8 5.4 5l3.3 2.3h349.4l3.3-2.3c1.8-1.2 4.3-3.5 5.4-5 2.1-2.8 2.1-3.3 2.4-92.1l.2-89.2-2.3-4.4c-5.5-10.4-20.6-10.8-26.7-.8-1.9 3.2-2 5.2-2 83V446H101v-79.8c0-77.8-.1-79.8-2-83-2.8-4.6-7.6-7.2-13-7.1-2.5 0-5.4.4-6.5.8z"/></svg>